{
  "accessors": [
    {
      "bufferView": 2,
      "componentType": 5126,
      "count": 65532,
      "max": [
        24.627336502075195,
        33.596221923828125,
        21.651493072509766
      ],
      "min": [
        -33.62486267089844,
        -33.11565017700195,
        -20.79378890991211
      ],
      "type": "VEC3"
    },
    {
      "bufferView": 2,
      "byteOffset": 786384,
      "componentType": 5126,
      "count": 65532,
      "max": [
        0.9999252557754517,
        0.999999463558197,
        0.9999947547912598
      ],
      "min": [
        -0.9999264478683472,
        -1.0,
        -1.0
      ],
      "type": "VEC3"
    },
    {
      "bufferView": 3,
      "componentType": 5126,
      "count": 65532,
      "max": [
        1.0,
        0.999934196472168,
        0.9999974966049194,
        1.0
      ],
      "min": [
        -1.0,
        -0.9999801516532898,
        -0.9999972581863403,
        -1.0
      ],
      "type": "VEC4"
    },
    {
      "bufferView": 1,
      "componentType": 5126,
      "count": 65532,
      "max": [
        0.991204023361206,
        0.9893789887428284
      ],
      "min": [
        0.006004000082612038,
        0.19021600484848022
      ],
      "type": "VEC2"
    },
    {
      "bufferView": 0,
      "componentType": 5125,
      "count": 358590,
      "type": "SCALAR"
    },
    {
      "bufferView": 2,
      "byteOffset": 1572768,
      "componentType": 5126,
      "count": 65532,
      "max": [
        29.898635864257813,
        36.420928955078125,
        23.41960334777832
      ],
      "min": [
        -29.461963653564453,
        -32.72923278808594,
        -20.789026260375977
      ],
      "type": "VEC3"
    },
    {
      "bufferView": 2,
      "byteOffset": 2359152,
      "componentType": 5126,
      "count": 65532,
      "max": [
        0.9999979734420776,
        0.9999904632568359,
        0.9999997615814209
      ],
      "min": [
        -0.9999979734420776,
        -0.9999980926513672,
        -0.9999918937683105
      ],
      "type": "VEC3"
    },
    {
      "bufferView": 3,
      "byteOffset": 1048512,
      "componentType": 5126,
      "count": 65532,
      "max": [
        1.0,
        0.9999946355819702,
        0.9999873638153076,
        1.0
      ],
      "min": [
        -1.0,
        -0.9999951720237732,
        -0.9999970197677612,
        1.0
      ],
      "type": "VEC4"
    },
    {
      "bufferView": 1,
      "byteOffset": 524256,
      "componentType": 5126,
      "count": 65532,
      "max": [
        0.7109559774398804,
        0.995182991027832
      ],
      "min": [
        0.002391000045463443,
        0.1860859990119934
      ],
      "type": "VEC2"
    },
    {
      "bufferView": 0,
      "byteOffset": 1434360,
      "componentType": 5125,
      "count": 356178,
      "type": "SCALAR"
    },
    {
      "bufferView": 2,
      "byteOffset": 3145536,
      "componentType": 5126,
      "count": 65532,
      "max": [
        33.41027069091797,
        36.417259216308594,
        23.41950798034668
      ],
      "min": [
        -33.41027069091797,
        -49.60453796386719,
        -30.933523178100586
      ],
      "type": "VEC3"
    },
    {
      "bufferView": 2,
      "byteOffset": 3931920,
      "componentType": 5126,
      "count": 65532,
      "max": [
        0.9999937415122986,
        1.0,
        0.999999463558197
      ],
      "min": [
        -0.9999935030937195,
        -1.0,
        -0.9999995231628418
      ],
      "type": "VEC3"
    },
    {
      "bufferView": 3,
      "byteOffset": 2097024,
      "componentType": 5126,
      "count": 65532,
      "max": [
        1.0,
        0.9999951124191284,
        0.9999945759773254,
        1.0
      ],
      "min": [
        -1.0,
        -0.9999949336051941,
        -0.9999996423721313,
        -1.0
      ],
      "type": "VEC4"
    },
    {
      "bufferView": 1,
      "byteOffset": 1048512,
      "componentType": 5126,
      "count": 65532,
      "max": [
        0.9958750009536743,
        0.9927679896354675
      ],
      "min": [
        0.005915999878197908,
        0.0021120000164955854
      ],
      "type": "VEC2"
    },
    {
      "bufferView": 0,
      "byteOffset": 2859072,
      "componentType": 5125,
      "count": 338319,
      "type": "SCALAR"
    },
    {
      "bufferView": 2,
      "byteOffset": 4718304,
      "componentType": 5126,
      "count": 65532,
      "max": [
        33.669921875,
        20.718891143798828,
        13.300369262695313
      ],
      "min": [
        -19.626846313476563,
        -49.60453796386719,
        -12.355633735656738
      ],
      "type": "VEC3"
    },
    {
      "bufferView": 2,
      "byteOffset": 5504688,
      "componentType": 5126,
      "count": 65532,
      "max": [
        1.0,
        1.0,
        1.0
      ],
      "min": [
        -1.0,
        -1.0,
        -1.0
      ],
      "type": "VEC3"
    },
    {
      "bufferView": 3,
      "byteOffset": 3145536,
      "componentType": 5126,
      "count": 65532,
      "max": [
        1.0,
        0.9999576210975647,
        0.9999988675117493,
        1.0
      ],
      "min": [
        -1.0,
        -0.9999788403511047,
        -0.9999996423721313,
        -1.0
      ],
      "type": "VEC4"
    },
    {
      "bufferView": 1,
      "byteOffset": 1572768,
      "componentType": 5126,
      "count": 65532,
      "max": [
        0.9961950182914734,
        0.6448889970779419
      ],
      "min": [
        0.006353000178933144,
        -9.300000237999484e-05
      ],
      "type": "VEC2"
    },
    {
      "bufferView": 0,
      "byteOffset": 4212348,
      "componentType": 5125,
      "count": 369249,
      "type": "SCALAR"
    },
    {
      "bufferView": 2,
      "byteOffset": 6291072,
      "componentType": 5126,
      "count": 32177,
      "max": [
        33.662742614746094,
        20.744308471679688,
        7.009452819824219
      ],
      "min": [
        -33.61690139770508,
        -0.7860209941864014,
        -6.476820945739746
      ],
      "type": "VEC3"
    },
    {
      "bufferView": 2,
      "byteOffset": 6677196,
      "componentType": 5126,
      "count": 32177,
      "max": [
        0.9999200105667114,
        0.9999986290931702,
        0.986328125
      ],
      "min": [
        -0.9997559785842896,
        -0.9980254769325256,
        -0.9371197819709778
      ],
      "type": "VEC3"
    },
    {
      "bufferView": 3,
      "byteOffset": 4194048,
      "componentType": 5126,
      "count": 32177,
      "max": [
        0.9999805092811584,
        0.9999606609344482,
        0.9999685287475586,
        1.0
      ],
      "min": [
        -0.9998165965080261,
        -0.9998330473899841,
        -0.9999319911003113,
        -1.0
      ],
      "type": "VEC4"
    },
    {
      "bufferView": 1,
      "byteOffset": 2097024,
      "componentType": 5126,
      "count": 32177,
      "max": [
        0.32227399945259094,
        0.483938992023468
      ],
      "min": [
        0.019576000049710274,
        0.010482000187039375
      ],
      "type": "VEC2"
    },
    {
      "bufferView": 0,
      "byteOffset": 5689344,
      "componentType": 5125,
      "count": 169608,
      "type": "SCALAR"
    }
  ],
  "asset": {
    "extras": {
      "author": "Leonth (https://sketchfab.com/leonth)",
      "license": "CC-BY-4.0 (http://creativecommons.org/licenses/by/4.0/)",
      "source": "https://sketchfab.com/3d-models/blue-the-minimalistic-robot-e0187dedf5dc4464b31b9a051e029230",
      "title": "Blue the minimalistic robot"
    },
    "generator": "Sketchfab-14.77.0",
    "version": "2.0"
  },
  "bufferViews": [
    {
      "buffer": 0,
      "byteLength": 6367776,
      "name": "floatBufferViews",
      "target": 34963
    },
    {
      "buffer": 0,
      "byteLength": 2354440,
      "byteOffset": 6367776,
      "byteStride": 8,
      "name": "floatBufferViews",
      "target": 34962
    },
    {
      "buffer": 0,
      "byteLength": 7063320,
      "byteOffset": 8722216,
      "byteStride": 12,
      "name": "floatBufferViews",
      "target": 34962
    },
    {
      "buffer": 0,
      "byteLength": 4708880,
      "byteOffset": 15785536,
      "byteStride": 16,
      "name": "floatBufferViews",
      "target": 34962
    }
  ],
  "buffers": [
    {
      "byteLength": 20494416,
      "uri": "scene.bin"
    }
  ],
  "images": [
    {
      "uri": "textures/default_baseColor.jpeg"
    },
    {
      "uri": "textures/default_metallicRoughness.png"
    },
    {
      "uri": "textures/default_normal.png"
    }
  ],
  "materials": [
    {
      "doubleSided": true,
      "name": "default",
      "normalTexture": {
        "index": 2
      },
      "occlusionTexture": {
        "index": 1
      },
      "pbrMetallicRoughness": {
        "baseColorTexture": {
          "index": 0
        },
        "metallicRoughnessTexture": {
          "index": 1
        }
      }
    }
  ],
  "meshes": [
    {
      "name": "defaultMaterial",
      "primitives": [
        {
          "attributes": {
            "NORMAL": 1,
            "POSITION": 0,
            "TANGENT": 2,
            "TEXCOORD_0": 3
          },
          "indices": 4,
          "material": 0,
          "mode": 4
        }
      ]
    },
    {
      "name": "defaultMaterial",
      "primitives": [
        {
          "attributes": {
            "NORMAL": 6,
            "POSITION": 5,
            "TANGENT": 7,
            "TEXCOORD_0": 8
          },
          "indices": 9,
          "material": 0,
          "mode": 4
        }
      ]
    },
    {
      "name": "defaultMaterial",
      "primitives": [
        {
          "attributes": {
            "NORMAL": 11,
            "POSITION": 10,
            "TANGENT": 12,
            "TEXCOORD_0": 13
          },
          "indices": 14,
          "material": 0,
          "mode": 4
        }
      ]
    },
    {
      "name": "defaultMaterial",
      "primitives": [
        {
          "attributes": {
            "NORMAL": 16,
            "POSITION": 15,
            "TANGENT": 17,
            "TEXCOORD_0": 18
          },
          "indices": 19,
          "material": 0,
          "mode": 4
        }
      ]
    },
    {
      "name": "defaultMaterial",
      "primitives": [
        {
          "attributes": {
            "NORMAL": 21,
            "POSITION": 20,
            "TANGENT": 22,
            "TEXCOORD_0": 23
          },
          "indices": 24,
          "material": 0,
          "mode": 4
        }
      ]
    }
  ],
  "nodes": [
    {
      "children": [
        1
      ],
      "matrix": [
        1.0,
        0.0,
        0.0,
        0.0,
        0.0,
        2.220446049250313e-16,
        -1.0,
        0.0,
        0.0,
        1.0,
        2.220446049250313e-16,
        0.0,
        0.0,
        0.0,
        0.0,
        1.0
      ],
      "name": "Sketchfab_model"
    },
    {
      "children": [
        2
      ],
      "matrix": [
        1.0,
        0.0,
        0.0,
        0.0,
        0.0,
        -4.371139006309477e-08,
        0.999999999999999,
        0.0,
        0.0,
        -0.999999999999999,
        -4.371139006309477e-08,
        0.0,
        0.0,
        0.0,
        0.0,
        1.0
      ],
      "name": "Collada visual scene group"
    },
    {
      "children": [
        3,
        4,
        5,
        6,
        7
      ],
      "name": "robo2_lo"
    },
    {
      "mesh": 0,
      "name": "defaultMaterial"
    },
    {
      "mesh": 1,
      "name": "defaultMaterial"
    },
    {
      "mesh": 2,
      "name": "defaultMaterial"
    },
    {
      "mesh": 3,
      "name": "defaultMaterial"
    },
    {
      "mesh": 4,
      "name": "defaultMaterial"
    }
  ],
  "samplers": [
    {
      "magFilter": 9729,
      "minFilter": 9987,
      "wrapS": 10497,
      "wrapT": 10497
    }
  ],
  "scene": 0,
  "scenes": [
    {
      "name": "Sketchfab_Scene",
      "nodes": [
        0
      ]
    }
  ],
  "textures": [
    {
      "sampler": 0,
      "source": 0
    },
    {
      "sampler": 0,
      "source": 1
    },
    {
      "sampler": 0,
      "source": 2
    }
  ]
}
